<svg xmlns="http://www.w3.org/2000/svg" fill="#000000" viewBox="0 0 24 24" width="24px" height="24px">
  <path d="M13.172,2H6C4.9,2,4,2.9,4,4v16c0,1.1,0.9,2,2,2h12c1.1,0,2-0.9,2-2V8.828c0-0.53-0.211-1.039-0.586-1.414l-4.828-4.828 C14.211,2.211,13.702,2,13.172,2z M12.5,19h-4C8.224,19,8,18.776,8,18.5v-1C8,17.224,8.224,17,8.5,17h4c0.276,0,0.5,0.224,0.5,0.5v1 C13,18.776,12.776,19,12.5,19z M15.5,16h-7C8.224,16,8,15.776,8,15.5v-1C8,14.224,8.224,14,8.5,14h7c0.276,0,0.5,0.224,0.5,0.5v1 C16,15.776,15.776,16,15.5,16z M15.5,13h-7C8.224,13,8,12.776,8,12.5v-1C8,11.224,8.224,11,8.5,11h7c0.276,0,0.5,0.224,0.5,0.5v1 C16,12.776,15.776,13,15.5,13z M13,9V3.5L18.5,9H13z" />
</svg>